<!DOCTYPE svg PUBLIC "-//W3C//DTD SVG 20010904//EN" "http://www.w3.org/TR/2001/REC-SVG-20010904/DTD/svg10.dtd">
<svg version="1.0" xmlns="http://www.w3.org/2000/svg" width="198px" height="104px" viewBox="0 0 1980 1040" preserveAspectRatio="xMidYMid meet">
<g id="layer101" fill="#d7eeff" stroke="none">
 <path d="M850 907 c-58 -56 -262 -250 -453 -431 -192 -180 -355 -339 -364 -352 -31 -48 17 -114 72 -100 14 4 116 93 228 198 111 106 276 262 367 347 91 86 192 182 226 214 33 31 64 57 69 57 4 0 36 -26 69 -57 117 -110 382 -360 583 -551 112 -105 214 -194 228 -198 30 -7 70 16 80 46 9 29 -13 59 -114 154 -47 45 -216 205 -376 356 -159 151 -324 307 -366 347 -108 103 -113 102 -249 -30z"/>
 </g>

</svg>